HIERARCHY
ROOT Hips
{
	OFFSET 0.000000 0.000000 0.000000
	CHANNELS 6 Xposition Yposition Zposition Xrotation Yrotation Zrotation
	JOINT LeftUpLeg_virtual
	{
		OFFSET 0.000000 0.000000 0.000000
		CHANNELS 3 Xrotation Yrotation Zrotation
		JOINT LeftUpLeg
		{
			OFFSET 15.427100 -6.655098 0.678600
			CHANNELS 3 Xrotation Yrotation Zrotation
			JOINT LeftLeg
			{
				OFFSET 4.081073 -39.591068 13.024000
				CHANNELS 3 Xrotation Yrotation Zrotation
				JOINT LeftFoot
				{
					OFFSET -4.081074 -37.707932 -15.979700
					CHANNELS 3 Xrotation Yrotation Zrotation
					JOINT LeftToeBase
					{
						OFFSET 5.346399 -15.068900 20.645000
						CHANNELS 3 Xrotation Yrotation Zrotation
						JOINT LeftToe_End
						{
							OFFSET 2.754700 0.931300 11.300900
							CHANNELS 3 Xrotation Yrotation Zrotation
							End Site
							{
								OFFSET 0 0 0
							}
						}
					}
				}
			}
		}
	}
	JOINT RightUpLeg_virtual
	{
		OFFSET 0.000000 0.000000 0.000000
		CHANNELS 3 Xrotation Yrotation Zrotation
		JOINT RightUpLeg
		{
			OFFSET -15.569500 -6.655098 0.678600
			CHANNELS 3 Xrotation Yrotation Zrotation
			JOINT RightLeg
			{
				OFFSET -4.081825 -39.591045 13.023800
				CHANNELS 3 Xrotation Yrotation Zrotation
				JOINT RightFoot
				{
					OFFSET 4.081824 -37.707954 -15.979600
					CHANNELS 3 Xrotation Yrotation Zrotation
					JOINT RightToeBase
					{
						OFFSET -5.346400 -15.068900 20.645000
						CHANNELS 3 Xrotation Yrotation Zrotation
						JOINT RightToe_End
						{
							OFFSET -2.754700 0.931300 11.300900
							CHANNELS 3 Xrotation Yrotation Zrotation
							End Site
							{
								OFFSET 0 0 0
							}
						}
					}
				}
			}
		}
	}
	JOINT Spine_virtual
	{
		OFFSET 0.000000 0.000000 0.000000
		CHANNELS 3 Xrotation Yrotation Zrotation
		JOINT Spine
		{
			OFFSET -0.279200 12.230698 -2.892100
			CHANNELS 3 Xrotation Yrotation Zrotation
			JOINT Spine1
			{
				OFFSET -0.232667 10.192268 -1.242267
				CHANNELS 3 Xrotation Yrotation Zrotation
				JOINT Spine1_split
				{
					OFFSET -0.232667 10.192268 -1.242267
					CHANNELS 3 Xrotation Yrotation Zrotation
					JOINT Spine2
					{
						OFFSET -0.232667 10.192268 -1.242267
						CHANNELS 3 Xrotation Yrotation Zrotation
						JOINT Neck_virtual
						{
							OFFSET 0.000000 0.000000 0.000000
							CHANNELS 3 Xrotation Yrotation Zrotation
							JOINT Neck
							{
								OFFSET -0.418800 17.814194 8.416900
								CHANNELS 3 Xrotation Yrotation Zrotation
								JOINT Head
								{
									OFFSET 0.000000 7.031097 3.806800
									CHANNELS 3 Xrotation Yrotation Zrotation
									JOINT HeadTop_End
									{
										OFFSET 0.000000 24.646606 12.978600
										CHANNELS 3 Xrotation Yrotation Zrotation
										End Site
										{
											OFFSET 0 0 0
										}
									}
								}
							}
						}
						JOINT LeftShoulder_virtual
						{
							OFFSET 0.000000 0.000000 0.000000
							CHANNELS 3 Xrotation Yrotation Zrotation
							JOINT LeftShoulder
							{
								OFFSET 8.476499 7.247704 -3.868750
								CHANNELS 3 Xrotation Yrotation Zrotation
								JOINT LeftShoulder_split
								{
									OFFSET 8.476499 7.247704 -3.868750
									CHANNELS 3 Xrotation Yrotation Zrotation
									JOINT LeftArm
									{
										OFFSET 9.308998 -2.777710 0.208600
										CHANNELS 3 Xrotation Yrotation Zrotation
										JOINT LeftForeArm
										{
											OFFSET 29.972298 0.000000 0.000000
											CHANNELS 3 Xrotation Yrotation Zrotation
											JOINT LeftHand
											{
												OFFSET 26.026505 0.000000 0.000000
												CHANNELS 3 Xrotation Yrotation Zrotation
												End Site
												{
													OFFSET 0 0 0
												}
											}
										}
									}
								}
							}
						}
						JOINT RightShoulder_virtual
						{
							OFFSET 0.000000 0.000000 0.000000
							CHANNELS 3 Xrotation Yrotation Zrotation
							JOINT RightShoulder
							{
								OFFSET -7.570500 7.247704 -3.868750
								CHANNELS 3 Xrotation Yrotation Zrotation
								JOINT RightShoulder_split
								{
									OFFSET -7.570500 7.247704 -3.868750
									CHANNELS 3 Xrotation Yrotation Zrotation
									JOINT RightArm
									{
										OFFSET -9.308998 -2.777710 0.208500
										CHANNELS 3 Xrotation Yrotation Zrotation
										JOINT RightForeArm
										{
											OFFSET -29.972300 0.000000 0.000000
											CHANNELS 3 Xrotation Yrotation Zrotation
											JOINT RightHand
											{
												OFFSET -26.026505 0.000000 0.000000
												CHANNELS 3 Xrotation Yrotation Zrotation
												End Site
												{
													OFFSET 0 0 0
												}
											}
										}
									}
								}
							}
						}
					}
				}
			}
		}
	}
}
MOTION
Frames: 10
Frame Time: 0.03333333
11.824263 140.275085 -16.190414 0.000000 0.000000 0.000000 -87.002431 -4.069110 0.826914 3.030029 31.659177 10.403681 2.575991 -15.503780 -10.133727 18.965016 34.120422 -10.414586 7.801698 -0.341426 8.772299 0.000000 0.000000 0.000000 -85.398128 -1.481942 2.683424 -0.666780 -13.008034 -12.674393 3.696442 15.042851 -10.946587 23.142337 -31.309854 22.137198 5.965106 -0.829851 -24.325000 0.000000 0.000000 0.000000 -88.311559 2.777350 5.604047 2.904465 -4.276638 -0.383252 2.338093 -4.158315 0.575074 0.093792 0.650919 -0.034670 0.000000 0.000000 0.000000 0.959200 -1.379257 -0.613054 -13.199458 2.206942 5.844221 -6.921019 -28.321844 12.822890 0.000000 0.000000 0.000000 0.471510 -2.894476 -1.401809 -1.038806 -4.658773 -3.169090 4.086386 3.026815 -3.538152 41.709267 -16.939933 -48.728540 16.738036 -77.011052 9.892700 0.000000 0.000000 0.000000 3.498211 -1.739663 -0.844050 -4.509439 -1.445726 19.480864 7.701568 3.712176 -0.500085 46.569920 36.217621 31.220873 168.885607 79.417956 -173.998687 0.000000 0.000000 0.000000 
11.786714 140.267273 -16.007530 0.000000 0.000000 0.000000 -87.090390 -4.043303 0.872142 2.937868 31.169807 10.428838 2.523913 -15.542410 -10.034887 18.923319 34.182802 -10.451739 7.988693 -0.322222 8.687830 0.000000 0.000000 0.000000 -85.367673 -1.499017 2.676264 -0.674757 -12.973280 -12.714818 3.801893 15.057651 -11.028133 23.260218 -31.319809 22.133317 6.092331 -0.871983 -24.281423 0.000000 0.000000 0.000000 -88.346557 2.696936 5.592370 2.780142 -4.216141 -0.462528 2.292058 -4.139238 0.650751 0.070913 0.629147 -0.045733 0.000000 0.000000 0.000000 0.764007 -1.361727 -0.549123 -13.365715 2.198928 5.796695 -6.861198 -28.357373 12.681640 0.000000 0.000000 0.000000 0.376243 -2.862764 -1.362466 -0.938843 -4.680863 -3.139529 3.816700 2.977345 -3.608458 42.003413 -17.085553 -48.259586 15.579759 -76.857332 8.672134 0.000000 0.000000 0.000000 3.320677 -1.725923 -0.802573 -4.411699 -2.037801 19.357521 7.544976 2.955152 0.547322 45.711717 36.430159 32.333016 168.870198 80.699696 -173.972049 0.000000 0.000000 0.000000 
11.759881 140.258911 -15.828094 0.000000 0.000000 0.000000 -87.166410 -4.106956 0.997203 2.918880 30.477294 10.269264 2.609804 -15.584412 -9.880257 18.949479 34.336187 -10.698799 8.180336 -0.276678 8.524127 0.000000 0.000000 0.000000 -85.313994 -1.668248 2.679556 -0.869645 -12.963115 -12.821451 3.852096 15.009013 -11.199045 23.580547 -31.369700 22.279754 5.771701 -0.829825 -24.234367 0.000000 0.000000 0.000000 -88.345314 2.673987 5.711050 2.622299 -4.119375 -0.629398 2.215634 -4.190025 0.805140 0.052133 0.622263 -0.097972 0.000000 0.000000 0.000000 0.551592 -1.419130 -0.381056 -13.565311 2.199219 5.517922 -6.890343 -28.378821 12.562444 0.000000 0.000000 0.000000 0.203949 -2.887943 -1.242084 -0.775871 -4.684913 -3.231714 3.342639 2.988645 -3.736405 42.554179 -17.442780 -47.169918 13.183417 -76.796721 6.294446 0.000000 0.000000 0.000000 3.123459 -1.737493 -0.652621 -4.225737 -2.906896 19.233541 7.179929 2.697777 1.346136 41.831306 35.995179 36.979829 167.889916 82.253086 -172.974923 0.000000 0.000000 0.000000 
11.754739 140.232544 -15.663010 0.000000 0.000000 0.000000 -87.233769 -4.292254 1.140264 2.929111 29.708055 9.948433 2.844092 -15.660285 -9.703957 19.144336 34.550594 -11.144664 8.325990 -0.211741 8.294875 0.000000 0.000000 0.000000 -85.290396 -1.929920 2.725953 -1.270955 -12.968194 -12.996489 3.937892 14.922326 -11.425254 24.061155 -31.382937 22.603002 5.087186 -0.721351 -24.202729 0.000000 0.000000 0.000000 -88.329543 2.707578 5.957926 2.452742 -3.977493 -0.851993 2.106558 -4.278091 0.991418 0.036665 0.635380 -0.159440 0.000000 0.000000 0.000000 0.349730 -1.520522 -0.163992 -13.707347 2.177543 5.011644 -6.992998 -28.404798 12.447630 0.000000 0.000000 0.000000 -0.041772 -2.943026 -1.085442 -0.576605 -4.651833 -3.480718 2.721132 2.811434 -3.818073 43.283264 -17.924889 -45.581305 9.848334 -76.714540 3.069824 0.000000 0.000000 0.000000 2.938389 -1.754305 -0.437558 -3.983117 -3.798042 19.174832 6.900511 2.844106 1.705511 35.521635 34.577327 44.040414 164.529790 83.977149 -169.565921 0.000000 0.000000 0.000000 
11.780648 140.195328 -15.516785 0.000000 0.000000 0.000000 -87.288520 -4.586852 1.251877 2.907116 29.042531 9.550432 3.205592 -15.733037 -9.547322 19.455447 34.807149 -11.609115 8.344808 -0.138428 8.041985 0.000000 0.000000 0.000000 -85.264229 -2.231334 2.810330 -1.764329 -12.963799 -13.189165 4.070391 14.802796 -11.679027 24.390288 -31.403485 22.878837 4.408889 -0.611207 -24.194482 0.000000 0.000000 0.000000 -88.292134 2.825915 6.317868 2.322803 -3.787772 -1.086473 1.966004 -4.366799 1.178425 0.007807 0.643801 -0.208490 0.000000 0.000000 0.000000 0.171633 -1.635472 0.064430 -13.694197 2.146273 4.324376 -7.084248 -28.470250 12.279642 0.000000 0.000000 0.000000 -0.328296 -3.004260 -0.928800 -0.359934 -4.542675 -3.917675 1.989311 2.358787 -3.968709 44.141255 -18.444122 -43.680508 6.282339 -76.539059 -0.319760 0.000000 0.000000 0.000000 2.801108 -1.770662 -0.202146 -3.741081 -4.464999 19.290210 6.590523 3.260277 1.734774 28.129477 32.157173 51.590905 153.928107 85.805904 -158.890773 0.000000 0.000000 0.000000 
11.838100 140.156830 -15.404064 0.000000 0.000000 0.000000 -87.328497 -4.938253 1.307954 2.841389 28.611428 9.141510 3.617766 -15.788751 -9.449138 19.813315 35.040032 -11.933492 8.185160 -0.061731 7.801380 0.000000 0.000000 0.000000 -85.212026 -2.539984 2.889738 -2.232901 -12.919458 -13.362714 4.285259 14.646702 -11.929181 24.280517 -31.497315 22.876315 4.033346 -0.545296 -24.201652 0.000000 0.000000 0.000000 -88.215896 2.958030 6.691870 2.302715 -3.561525 -1.288239 1.834984 -4.435202 1.343416 -0.003277 0.653317 -0.218398 0.000000 0.000000 0.000000 0.032516 -1.734707 0.264009 -13.473061 2.136078 3.505781 -7.094543 -28.577245 12.029789 0.000000 0.000000 0.000000 -0.583114 -3.065620 -0.797162 -0.148509 -4.320535 -4.589671 1.358726 1.721531 -4.176950 45.058837 -18.907179 -41.639671 3.228572 -76.323990 -3.146804 0.000000 0.000000 0.000000 2.730352 -1.761091 0.006486 -3.525309 -4.749061 19.669113 6.386241 3.838192 1.370591 21.226889 29.565669 57.580865 126.094363 87.077044 -130.977770 0.000000 0.000000 0.000000 
11.900054 140.116455 -15.340286 0.000000 0.000000 0.000000 -87.387537 -5.274261 1.332215 2.708607 28.437506 8.840329 3.964202 -15.858629 -9.449635 20.178739 35.165728 -12.054726 7.891735 0.014405 7.612741 0.000000 0.000000 0.000000 -85.138957 -2.796543 2.945827 -2.607978 -12.852448 -13.531435 4.643635 14.488339 -12.127935 23.776642 -31.627410 22.594541 4.022517 -0.522068 -24.218328 0.000000 0.000000 0.000000 -88.088014 3.143926 7.091650 2.435564 -3.315146 -1.442666 1.766826 -4.473825 1.487814 0.003382 0.644871 -0.216245 0.000000 0.000000 0.000000 -0.046559 -1.804386 0.422568 -12.989294 2.134970 2.644513 -7.046900 -28.588711 11.631722 0.000000 0.000000 0.000000 -0.747841 -3.115666 -0.690861 0.046290 -3.941178 -5.448888 1.032443 1.024374 -4.436385 45.846549 -19.325870 -39.531219 1.158057 -76.165871 -4.960897 0.000000 0.000000 0.000000 2.758849 -1.738280 0.169391 -3.334201 -4.657461 20.254438 6.239338 4.260867 1.118170 15.950191 27.899890 60.706810 94.545992 86.886679 -99.331947 0.000000 0.000000 0.000000 
11.978839 140.075226 -15.384071 0.000000 0.000000 0.000000 -87.408813 -5.555590 1.312757 2.513840 28.479191 8.702140 4.164924 -15.960494 -9.556917 20.535457 35.116871 -11.948263 7.571434 0.088177 7.494671 0.000000 0.000000 0.000000 -85.021355 -2.933290 3.021579 -2.849117 -12.757904 -13.689270 5.125542 14.389991 -12.207788 23.161822 -31.663825 22.260369 4.177146 -0.500827 -24.228416 0.000000 0.000000 0.000000 -87.890116 3.387472 7.499819 2.729258 -3.068809 -1.541826 1.823980 -4.487299 1.625305 0.035584 0.652343 -0.201131 0.000000 0.000000 0.000000 -0.010345 -1.836866 0.546357 -12.211956 2.149941 1.871104 -6.860495 -28.268037 11.098854 0.000000 0.000000 0.000000 -0.743229 -3.146422 -0.590229 0.216801 -3.332430 -6.419921 1.030216 0.467065 -4.567991 46.320178 -19.741545 -37.331666 0.416733 -76.174655 -5.425884 0.000000 0.000000 0.000000 2.910284 -1.718304 0.274266 -3.162605 -4.330310 20.977661 6.380556 4.557500 1.031556 12.861892 27.789972 60.675070 92.630302 85.974105 -97.351595 0.000000 0.000000 0.000000 
12.067507 140.029938 -15.513149 0.000000 0.000000 0.000000 -87.336475 -5.779242 1.245351 2.272950 28.603599 8.708366 4.201776 -16.083412 -9.744617 20.899170 34.930612 -11.650582 7.336472 0.154133 7.432091 0.000000 0.000000 0.000000 -84.862607 -3.011339 3.090709 -2.946526 -12.618747 -13.795315 5.535763 14.418651 -12.138935 22.590291 -31.564165 22.052147 4.248926 -0.451650 -24.192311 0.000000 0.000000 0.000000 -87.677479 3.636683 7.883873 3.181334 -2.840575 -1.591316 2.069090 -4.479995 1.767001 0.088759 0.652325 -0.170929 0.000000 0.000000 0.000000 0.222703 -1.825155 0.629763 -11.116734 2.175663 1.292910 -6.563814 -27.361531 10.456367 0.000000 0.000000 0.000000 -0.509203 -3.157128 -0.482934 0.369745 -2.475729 -7.397482 1.326789 -0.027801 -4.634971 46.383108 -20.208028 -35.002448 1.200466 -76.339044 -4.331100 0.000000 0.000000 0.000000 3.198369 -1.719395 0.324171 -2.977950 -3.994693 21.671383 7.116809 4.664338 0.667736 12.012361 29.024916 57.976271 114.555742 84.513195 -119.270403 0.000000 0.000000 0.000000 
12.114104 140.000153 -15.693123 0.000000 0.000000 0.000000 -87.173889 -5.956233 1.181605 2.041554 28.691610 8.793777 4.099191 -16.165325 -9.945868 21.276082 34.725423 -11.217575 7.195633 0.209384 7.396389 0.000000 0.000000 0.000000 -84.684333 -3.013576 3.195963 -2.837641 -12.432015 -13.791420 5.664923 14.514828 -11.975774 21.927769 -31.458909 21.853062 4.208207 -0.385546 -24.066814 0.000000 0.000000 0.000000 -87.538505 3.824123 8.184993 3.784553 -2.641304 -1.599586 2.513217 -4.438553 1.911478 0.120748 0.642423 -0.152412 0.000000 0.000000 0.000000 0.707807 -1.765022 0.674534 -9.693309 2.166962 0.964150 -6.126886 -25.879529 9.767585 0.000000 0.000000 0.000000 -0.030239 -3.126476 -0.378910 0.510770 -1.406374 -8.271749 1.712706 -0.198099 -4.574052 45.936113 -20.911297 -32.567524 3.470985 -76.509990 -1.717684 0.000000 0.000000 0.000000 3.681452 -1.729754 0.334105 -2.747696 -3.819319 22.194406 8.087045 4.416144 0.318867 13.081394 30.659503 53.485248 136.621118 81.403875 -141.407797 0.000000 0.000000 0.000000 
